<svg xmlns="http://www.w3.org/2000/svg" xmlns:xlink="http://www.w3.org/1999/xlink" viewBox="0 0 71.2 49.93">
  <defs>
    <style>
      .cls-1 {
        fill: none;
      }

      .cls-2 {
        fill: url(#linear-gradient);
      }

      .cls-3 {
        fill: url(#linear-gradient-2);
      }

      .cls-4 {
        clip-path: url(#clip-path);
      }

      .cls-5 {
        fill: url(#linear-gradient-3);
      }
    </style>
    <linearGradient id="linear-gradient" x1="38.9" y1="16.83" x2="52.89" y2="-3.65" gradientUnits="userSpaceOnUse">
      <stop offset="0" stop-color="#26225a"/>
      <stop offset="1" stop-color="#2f2f81"/>
    </linearGradient>
    <linearGradient id="linear-gradient-2" x1="7.19" y1="12.23" x2="56.67" y2="36.78" gradientUnits="userSpaceOnUse">
      <stop offset="0" stop-color="#903d97"/>
      <stop offset="1" stop-color="#b71e80"/>
    </linearGradient>
    <clipPath id="clip-path" transform="translate(0 0)">
      <path class="cls-1" d="M69.25,2h0A6.68,6.68,0,0,0,59.8,2L42.17,19.58h0l-.22.24c-3.28,3.28-7.58,4.36-10,2.65L11.41,2A6.68,6.68,0,0,0,2,11.41L33.3,42.75a3.21,3.21,0,0,0,2.3.93,3.3,3.3,0,0,0,1.2-.21h0c.16-.07.32-.16.48-.25l.08-.05a3.13,3.13,0,0,0,.5-.4h0L59,21.67h0l.5-.5a4.06,4.06,0,0,0,.51-.51l9.26-9.25A6.7,6.7,0,0,0,69.25,2Z"/>
    </clipPath>
    <linearGradient id="linear-gradient-3" x1="19.03" y1="66.15" x2="32.58" y2="28.87" gradientUnits="userSpaceOnUse">
      <stop offset="0" stop-color="#fff"/>
      <stop offset="1" stop-color="#fff" stop-opacity="0"/>
    </linearGradient>
  </defs>
  <title>vlb-logo</title>
  <g id="Layer_2" data-name="Layer 2">
    <g id="Layer_1-2" data-name="Layer 1">
      <g>
        <path class="cls-2" d="M69.25,2h0A6.68,6.68,0,0,0,59.8,2L42.17,19.58h0l-.22.24C38.42,23.35,33.7,24.34,31.4,22a3.81,3.81,0,0,1-.37-.43,97.56,97.56,0,0,1-20.8-2L33.39,42.75a3.18,3.18,0,0,0,4.51,0L69.25,11.41A6.7,6.7,0,0,0,69.25,2Z" transform="translate(0 0)"/>
        <path class="cls-3" d="M59,21.67c.22-.29.8-.72,1-1-9,7.47-20.25,9.41-25.89,4h0l-.52-.52L11.41,2A6.68,6.68,0,0,0,2,11.41L33.3,42.75a3.31,3.31,0,0,0,4.6,0Z" transform="translate(0 0)"/>
        <g class="cls-4">
          <path class="cls-5" d="M18.79,28.52a7,7,0,0,1,8.53,1l8.24,7.69s4.28,4.5,7.91,0L37,49.93,17.65,39.11Z" transform="translate(0 0)"/>
        </g>
      </g>
    </g>
  </g>
</svg>
